<svg xmlns="http://www.w3.org/2000/svg" width="230" height="372" version="1.1">
    <desc></desc>
    <defs>
        <marker id="arrowblock" viewBox="0 0 5 5" markerWidth="5" markerHeight="5" orient="auto" refX="5" refY="2.5">
            <path d="M 0 0 L 5 2.5 L 0 5 z"></path>
        </marker>
        <marker id="arrowopen" viewBox="0 0 9.6 16" markerWidth="4" markerHeight="16" orient="auto" refX="9.6" refY="8">
            <path d="M 9.6,8 1.92,16 0,13.7 5.76,8 0,2.286 1.92,0 9.6,8 z"></path>
        </marker>
    </defs>
    <path fill="none" stroke="#000" stroke-width="2px" d="M10,10C69.2,4.1 106.2,15.9 158,10C159.0,25.6 157.0,28.5 158,36C82.5,30.1 64.8,41.9 10,36C9.0,26.6 11.0,24.0 10,10"></path>
    <text x="15" y="15" text-anchor="start" font-size="16px">
        <tspan dy="19.2" x="15">
            Example diagram
        </tspan>
    </text>
    <path fill="none" stroke="#000" stroke-width="2px" d="M10,46C45.4,43.9 43.8,48.1 62,46C60.6,59.0 63.4,71.6 62,82C25.6,84.1 23.0,79.9 10,82C11.4,61.5 8.6,59.7 10,46"></path>
    <text x="20" y="56" text-anchor="start" font-size="16px">
        <tspan dy="19.2" x="20">
            Left
        </tspan>
    </text>
    <path fill="none" stroke="#000" stroke-width="2px" d="M10,326C51.1,323.9 44.3,328.1 62,326C60.6,351.9 63.4,346.9 62,362C41.2,359.9 20.4,364.1 10,362C11.4,346.2 8.6,342.9 10,326"></path>
    <text x="20" y="336" text-anchor="start" font-size="16px">
        <tspan dy="19.2" x="20">
            Left
        </tspan>
    </text>
    <path fill="none" stroke="#000" stroke-width="2px" d="M36,82C26.2,147.9 45.8,223.5 36,326"></path>
    <path fill="none" stroke="#000" stroke-width="2px" d="M82,46C107.0,48.1 112.2,43.9 134,46C135.4,63.6 132.6,52.1 134,82C105.4,84.1 112.7,79.9 82,82C80.6,69.4 83.4,73.0 82,46"></path>
    <text x="92" y="56" text-anchor="start" font-size="16px">
        <tspan dy="19.2" x="92">
            Righ
        </tspan>
    </text>
    <path fill="none" stroke="#000" stroke-width="2px" d="M82,326C102.8,328.1 117.4,323.9 134,326C132.6,342.9 135.4,343.6 134,362C110.1,359.9 99.2,364.1 82,362C80.6,333.9 83.4,345.4 82,326"></path>
    <text x="92" y="336" text-anchor="start" font-size="16px">
        <tspan dy="19.2" x="92">
            Righ
        </tspan>
    </text>
    <path fill="none" stroke="#000" stroke-width="2px" d="M108,82C98.2,204.0 117.8,223.5 108,326"></path>
    <path fill="none" stroke="#000" stroke-width="2px" d="M154,46C185.0,48.6 166.5,43.4 220,46C218.6,51.8 221.4,60.0 220,82C175.8,79.4 206.8,84.6 154,82C155.4,59.3 152.6,58.6 154,46"></path>
    <text x="164" y="56" text-anchor="start" font-size="16px">
        <tspan dy="19.2" x="164">
            Right
        </tspan>
    </text>
    <path fill="none" stroke="#000" stroke-width="2px" d="M154,326C168.5,323.4 177.1,328.6 220,326C218.6,345.8 221.4,346.9 220,362C194.3,364.6 178.4,359.4 154,362C155.4,346.2 152.6,338.6 154,326"></path>
    <text x="164" y="336" text-anchor="start" font-size="16px">
        <tspan dy="19.2" x="164">
            Right
        </tspan>
    </text>
    <path fill="none" stroke="#000" stroke-width="2px" d="M187,82C196.8,265.0 177.2,274.8 187,326"></path>
    <rect x="56" y="112" width="70" height="36" rx="0" ry="0" fill="white" fill-opacity="70%" stroke="white" stroke-width="0px"></rect>
    <text x="56" y="112" text-anchor="start" font-size="16px">
        <tspan dy="19.2" x="56">
            to Right
        </tspan>
    </text>
    <path fill="none" stroke="#000" stroke-width="2px" d="M36,148C59.8,150.9 83.5,145.1 108,148" marker-end="url(#arrowblock)"></path>
    <rect x="105" y="168" width="62" height="36" rx="0" ry="0" fill="white" fill-opacity="70%" stroke="white" stroke-width="0px"></rect>
    <text x="167" y="168" text-anchor="end" font-size="16px">
        <tspan dy="19.2" x="167">
            to Left
        </tspan>
    </text>
    <path fill="none" stroke="#000" stroke-width="2px" d="M187,204C88.8,210.0 111.5,198.0 36,204" marker-end="url(#arrowblock)"></path>
    <rect x="56" y="224" width="54" height="36" rx="0" ry="0" fill="white" fill-opacity="70%" stroke="white" stroke-width="0px"></rect>
    <text x="56" y="224" text-anchor="start" font-size="16px">
        <tspan dy="19.2" x="56">
            Dotted
        </tspan>
    </text>
    <path fill="none" stroke="#000" stroke-width="2px" d="M36,260C82.8,262.9 74.9,257.1 108,260" marker-end="url(#arrowblock)" stroke-dasharray="6px,2px"></path>
    <rect x="56" y="280" width="92" height="36" rx="0" ry="0" fill="white" fill-opacity="70%" stroke="white" stroke-width="0px"></rect>
    <text x="56" y="280" text-anchor="start" font-size="16px">
        <tspan dy="19.2" x="56">
            Open arrow
        </tspan>
    </text>
    <path fill="none" stroke="#000" stroke-width="2px" d="M36,316C85.8,310.0 81.3,322.0 187,316" marker-end="url(#arrowopen)"></path>
</svg>
