
<svg xmlns="http://www.w3.org/2000/svg" width="158" height="372" version="1.1">
    <desc/>
    <defs>
        <marker id="arrowblock" viewBox="0 0 5 5" markerWidth="5" markerHeight="5" orient="auto" refX="5" refY="2.5">
            <path d="M 0 0 L 5 2.5 L 0 5 z"/>
        </marker>
        <marker id="arrowopen" viewBox="0 0 9.6 16" markerWidth="4" markerHeight="16" orient="auto" refX="9.6" refY="8">
            <path d="M 9.6,8 1.92,16 0,13.7 5.76,8 0,2.286 1.92,0 9.6,8 z"/>
        </marker>
    </defs>
    <path fill="none" stroke="#000" stroke-width="2px" d="M10,10C69.2,4.1 106.2,15.9 158,10C159.0,25.6 157.0,28.5 158,36C82.5,30.1 64.8,41.9 10,36C9.0,26.6 11.0,24.0 10,10"/>
    <text x="15" y="15" text-anchor="start" font-size="16px">
        <tspan dy="19.2" x="15">
            Example diagram
        </tspan>
    </text>
    <path fill="none" stroke="#000" stroke-width="2px" d="M10,46C45.4,43.9 43.8,48.1 62,46C60.6,59.0 63.4,71.6 62,82C25.6,84.1 23.0,79.9 10,82C11.4,61.5 8.6,59.7 10,46"/>
    <text x="20" y="56" text-anchor="start" font-size="16px">
        <tspan dy="19.2" x="20">
            Left
        </tspan>
    </text>
    <path fill="none" stroke="#000" stroke-width="2px" d="M10,326C51.1,323.9 44.3,328.1 62,326C60.6,351.9 63.4,346.9 62,362C41.2,359.9 20.4,364.1 10,362C11.4,346.2 8.6,342.9 10,326"/>
    <text x="20" y="336" text-anchor="start" font-size="16px">
        <tspan dy="19.2" x="20">
            Left
        </tspan>
    </text>
    <path fill="none" stroke="#000" stroke-width="2px" d="M36,82C26.2,147.9 45.8,223.5 36,326"/>
    <path fill="none" stroke="#000" stroke-width="2px" d="M82,46C136.8,48.6 118.3,43.4 148,46C149.4,56.1 146.6,59.3 148,82C117.6,84.6 103.8,79.4 82,82C83.4,65.4 80.6,66.5 82,46"/>
    <text x="92" y="56" text-anchor="start" font-size="16px">
        <tspan dy="19.2" x="92">
            Right
        </tspan>
    </text>
    <path fill="none" stroke="#000" stroke-width="2px" d="M82,326C116.3,323.4 118.3,328.6 148,326C146.6,340.0 149.4,342.9 148,362C101.1,364.6 107.1,359.4 82,362C83.4,348.3 80.6,333.6 82,326"/>
    <text x="92" y="336" text-anchor="start" font-size="16px">
        <tspan dy="19.2" x="92">
            Right
        </tspan>
    </text>
    <path fill="none" stroke="#000" stroke-width="2px" d="M115,82C105.2,196.7 124.8,206.4 115,326"/>
    <rect x="56" y="112" width="70" height="36" rx="0" ry="0" fill="white" fill-opacity="70%" stroke="white" stroke-width="0px"/>
    <text x="56" y="112" text-anchor="start" font-size="16px">
        <tspan dy="19.2" x="56">
            to Right
        </tspan>
    </text>
    <path fill="none" stroke="#000" stroke-width="2px" d="M36,148C98.4,151.2 56.5,144.8 115,148" marker-end="url(#arrowblock)"/>
    <rect x="33" y="168" width="62" height="36" rx="0" ry="0" fill="white" fill-opacity="70%" stroke="white" stroke-width="0px"/>
    <text x="95" y="168" text-anchor="end" font-size="16px">
        <tspan dy="19.2" x="95">
            to Left
        </tspan>
    </text>
    <path fill="none" stroke="#000" stroke-width="2px" d="M115,204C51.8,200.8 88.1,207.2 36,204" marker-end="url(#arrowblock)"/>
    <rect x="56" y="224" width="54" height="36" rx="0" ry="0" fill="white" fill-opacity="70%" stroke="white" stroke-width="0px"/>
    <text x="56" y="224" text-anchor="start" font-size="16px">
        <tspan dy="19.2" x="56">
            Dotted
        </tspan>
    </text>
    <path fill="none" stroke="#000" stroke-width="2px" d="M36,260C60.5,256.8 101.6,263.2 115,260" marker-end="url(#arrowblock)" stroke-dasharray="6px,2px"/>
    <rect x="56" y="280" width="92" height="36" rx="0" ry="0" fill="white" fill-opacity="70%" stroke="white" stroke-width="0px"/>
    <text x="56" y="280" text-anchor="start" font-size="16px">
        <tspan dy="19.2" x="56">
            Open arrow
        </tspan>
    </text>
    <path fill="none" stroke="#000" stroke-width="2px" d="M36,316C60.5,319.2 62.1,312.8 115,316" marker-end="url(#arrowopen)"/>
</svg>
